Coordinates
version=1
nRows=13
nColumns=22
inDegrees=yes

Units are S.I. units (second, meters, Newtons, ...)
If the header above contains a line with 'inDegrees', this indicates whether rotational values are in degrees (yes) or radians (no).

endheader
time	pelvis_tilt	pelvis_list	pelvis_rotation	pelvis_tx	pelvis_ty	pelvis_tz	hip_flexion_r	hip_adduction_r	hip_rotation_r	knee_angle_r	ankle_angle_r	subtalar_angle_r	hip_flexion_l	hip_adduction_l	hip_rotation_l	knee_angle_l	ankle_angle_l	subtalar_angle_l	lumbar_extension	lumbar_bending	lumbar_rotation
      0.01000000	     -0.97322618	     -4.21887334	     -9.90709333	     -1.25053717	      1.02400388	      0.64985574	      2.05883443	      5.89983480	     -2.63180790	    -10.83129787	      8.78562533	     -3.62450076	      1.76379855	     -2.68206093	     -7.92715984	    -10.82034399	     11.99588945	     -4.70061264	     -9.77545352	      4.16692494	      2.44795057
      0.02000000	     -0.97609924	     -4.22139008	     -9.89991845	     -1.25052973	      1.02400163	      0.64982916	      2.06029449	      5.90219356	     -2.63138245	    -10.82940460	      8.78362981	     -3.62446542	      1.76503197	     -2.68513662	     -7.92793009	    -10.81589833	     11.99637005	     -4.70155925	     -9.77884146	      4.16109538	      2.44596773
      0.03000000	     -0.97947151	     -4.22402201	     -9.89101052	     -1.25051168	      1.02399986	      0.64979747	      2.06150331	      5.90447827	     -2.63119777	    -10.82781216	      8.78145491	     -3.62440290	      1.76553786	     -2.68786129	     -7.92763338	    -10.81002138	     11.99677854	     -4.70246785	     -9.78055407	      4.15324131	      2.44320822
      0.04000000	     -0.98812152	     -4.21837166	     -9.85779045	     -1.25047003	      1.02399361	      0.64971661	      2.06158048	      5.89691924	     -2.66038943	    -10.81078708	      8.75810582	     -3.62531937	      1.76729722	     -2.67677613	     -7.86825416	    -10.78759953	     11.98458365	     -4.71713944	     -9.76949167	      4.14093406	      2.40099737
      0.05000000	     -0.99184781	     -4.22173414	     -9.84878720	     -1.25044786	      1.02399159	      0.64967702	      2.06364804	      5.89930219	     -2.66096996	    -10.81090844	      8.75860083	     -3.62531736	      1.76825626	     -2.67992637	     -7.86978173	    -10.78230854	     11.98495735	     -4.71772979	     -9.77260120	      4.13192414	      2.40035052
      0.06000000	     -0.99586542	     -4.22485393	     -9.83884493	     -1.25042468	      1.02398945	      0.64963241	      2.06605960	      5.90126869	     -2.66221391	    -10.81049647	      8.75883277	     -3.62519122	      1.76932326	     -2.68233463	     -7.87055214	    -10.77614001	     11.98528182	     -4.71818146	     -9.77515494	      4.12204321	      2.39900413
      0.07000000	     -1.00022399	     -4.22739752	     -9.82746779	     -1.25039975	      1.02398597	      0.64958186	      2.06848953	      5.90295692	     -2.66455724	    -10.80973667	      8.75886691	     -3.62494170	      1.77091539	     -2.68320948	     -7.87060044	    -10.76899284	     11.98548609	     -4.71857714	     -9.77693634	      4.11169562	      2.39684108
      0.08000000	     -1.00497129	     -4.22915251	     -9.81448757	     -1.25037335	      1.02398357	      0.64952509	      2.07121440	      5.90338559	     -2.66827402	    -10.80829532	      8.75873353	     -3.62458038	      1.77304021	     -2.68292081	     -7.86980684	    -10.76103796	     11.98547023	     -4.71893560	     -9.77786551	      4.10106681	      2.39388329
      0.09000000	     -1.02537170	     -4.20271814	     -9.76901460	     -1.25033786	      1.02395013	      0.64939407	      2.09696983	      5.87123774	     -2.74189423	    -10.80643534	      8.76216388	     -3.62046413	      1.79606995	     -2.64834716	     -7.79530842	    -10.74116310	     11.96254778	     -4.72321062	     -9.75080975	      4.06962315	      2.33351842
      0.10000000	     -1.02843865	     -4.20623744	     -9.75597468	     -1.25030166	      1.02394900	      0.64933070	      2.09785412	      5.87321555	     -2.74161519	    -10.80767667	      8.76266242	     -3.62035718	      1.79731573	     -2.64938660	     -7.79714173	    -10.73742698	     11.96259033	     -4.72363280	     -9.75019753	      4.06313501	      2.33538156
      0.11000000	     -1.04398925	     -4.20023264	     -9.73509797	     -1.25024658	      1.02392722	      0.64924829	      2.10700424	      5.86554030	     -2.76638697	    -10.79602027	      8.76668055	     -3.61867416	      1.80871048	     -2.64039222	     -7.78069752	    -10.72376043	     11.95738937	     -4.72669689	     -9.72768121	      4.05073602	      2.32713175
      0.12000000	     -1.04793767	     -4.20267969	     -9.72503003	     -1.25023586	      1.02392574	      0.64918056	      2.11093824	      5.86643117	     -2.76598442	    -10.79655583	      8.76650526	     -3.61846716	      1.81185198	     -2.64042651	     -7.78015356	    -10.71942088	     11.95686489	     -4.72700939	     -9.73190859	      4.04457122	      2.32738701
      0.13000000	     -1.05180596	     -4.20410018	     -9.71232282	     -1.25021030	      1.02392388	      0.64910787	      2.11376173	      5.86580561	     -2.76657015	    -10.79706609	      8.76608793	     -3.61808767	      1.81367365	     -2.63930013	     -7.77783185	    -10.71446779	     11.95582598	     -4.72730860	     -9.73058007	      4.03806153	      2.32823656
